<?xml version="1.0" encoding="UTF-8"?>
<!DOCTYPE svg PUBLIC "-//W3C//DTD SVG 1.1//EN" "http://www.w3.org/Graphics/SVG/1.1/DTD/svg11.dtd">
<svg xmlns="http://www.w3.org/2000/svg" version="1.1" width="1600px" height="1600px" style="shape-rendering:geometricPrecision; text-rendering:geometricPrecision; image-rendering:optimizeQuality; fill-rule:evenodd; clip-rule:evenodd" xmlns:xlink="http://www.w3.org/1999/xlink">
<g><path style="opacity:1" fill="#fff" d="M 350.5,199.5 C 366.93,197.486 382.264,200.653 396.5,209C 685.335,381.252 974.335,553.252 1263.5,725C 1293.08,749.705 1304.58,781.205 1298,819.5C 1292.99,841.829 1281.49,859.996 1263.5,874C 975.905,1044.6 688.572,1215.6 401.5,1387C 389.319,1394.93 375.985,1399.09 361.5,1399.5C 334.487,1398.65 315.32,1385.98 304,1361.5C 302.198,1356.63 300.865,1351.63 300,1346.5C 299.333,981.833 299.333,617.167 300,252.5C 305.573,223.966 322.406,206.299 350.5,199.5 Z"/></g>
</svg>
